<svg width="33" height="36" viewBox="0 0 33 36" fill="none" xmlns="http://www.w3.org/2000/svg">
<path d="M16.5 27L22 21L20.075 18.9L17.875 21.3V15H15.125V21.3L12.925 18.9L11 21L16.5 27ZM6.875 12V28.5H26.125V12H6.875ZM6.875 31.5C6.11875 31.5 5.46563 31.2125 4.91563 30.6375C4.38854 30.0375 4.125 29.325 4.125 28.5V9.7875C4.125 9.4375 4.17083 9.1 4.2625 8.775C4.37708 8.45 4.5375 8.15 4.74375 7.875L6.4625 5.5875C6.71458 5.2375 7.02396 4.975 7.39062 4.8C7.78021 4.6 8.18125 4.5 8.59375 4.5H24.4062C24.8188 4.5 25.2083 4.6 25.575 4.8C25.9646 4.975 26.2854 5.2375 26.5375 5.5875L28.2563 7.875C28.4625 8.15 28.6115 8.45 28.7031 8.775C28.8177 9.1 28.875 9.4375 28.875 9.7875V28.5C28.875 29.325 28.6 30.0375 28.05 30.6375C27.5229 31.2125 26.8813 31.5 26.125 31.5H6.875ZM7.425 9H25.575L24.4062 7.5H8.59375L7.425 9Z" fill="#1D1B20"/>
</svg>
