<svg width="38" height="36" viewBox="0 0 38 36" fill="none" xmlns="http://www.w3.org/2000/svg">
<path d="M19.0001 31.5L16.7042 29.55C14.039 27.275 11.8355 25.3125 10.0938 23.6625C8.35216 22.0125 6.96675 20.5375 5.93758 19.2375C4.90842 17.9125 4.18272 16.7 3.7605 15.6C3.36466 14.5 3.16675 13.375 3.16675 12.225C3.16675 9.875 3.998 7.9125 5.6605 6.3375C7.323 4.7625 9.39453 3.975 11.8751 3.975C13.2473 3.975 14.5536 4.25 15.7938 4.8C17.0341 5.35 18.1029 6.125 19.0001 7.125C19.8973 6.125 20.9661 5.35 22.2063 4.8C23.4466 4.25 24.7529 3.975 26.1251 3.975C28.6056 3.975 30.6772 4.7625 32.3397 6.3375C34.0022 7.9125 34.8334 9.875 34.8334 12.225C34.8334 13.375 34.6223 14.5 34.2001 15.6C33.8042 16.7 33.0917 17.9125 32.0626 19.2375C31.0334 20.5375 29.648 22.0125 27.9063 23.6625C26.1647 25.3125 23.9612 27.275 21.2959 29.55L19.0001 31.5ZM19.0001 27.45C21.5334 25.3 23.6181 23.4625 25.2542 21.9375C26.8904 20.3875 28.1834 19.05 29.1334 17.925C30.0834 16.775 30.7431 15.7625 31.1126 14.8875C31.482 13.9875 31.6667 13.1 31.6667 12.225C31.6667 10.725 31.139 9.475 30.0834 8.475C29.0279 7.475 27.7084 6.975 26.1251 6.975C24.8848 6.975 23.7369 7.3125 22.6813 7.9875C21.6258 8.6375 20.9001 9.475 20.5042 10.5H17.4959C17.1001 9.475 16.3744 8.6375 15.3188 7.9875C14.2633 7.3125 13.1154 6.975 11.8751 6.975C10.2917 6.975 8.9723 7.475 7.91675 8.475C6.86119 9.475 6.33341 10.725 6.33341 12.225C6.33341 13.1 6.51814 13.9875 6.88758 14.8875C7.25703 15.7625 7.91675 16.775 8.86675 17.925C9.81675 19.05 11.1098 20.3875 12.7459 21.9375C14.382 23.4625 16.4667 25.3 19.0001 27.45Z" fill="#1D1B20"/>
</svg>
