<svg width="41" height="39" viewBox="0 0 41 39" fill="none" xmlns="http://www.w3.org/2000/svg">
<path d="M20.5 34.125L18.0229 32.0125C15.1472 29.5479 12.7698 27.4219 10.8906 25.6344C9.01146 23.8469 7.51667 22.249 6.40625 20.8406C5.29584 19.4052 4.51285 18.0917 4.05729 16.9C3.63021 15.7083 3.41667 14.4896 3.41667 13.2437C3.41667 10.6979 4.31354 8.57187 6.10729 6.86562C7.90104 5.15937 10.1361 4.30624 12.8125 4.30624C14.2931 4.30624 15.7024 4.60416 17.0406 5.19999C18.3788 5.79583 19.5319 6.63541 20.5 7.71874C21.4681 6.63541 22.6212 5.79583 23.9594 5.19999C25.2976 4.60416 26.7069 4.30624 28.1875 4.30624C30.8639 4.30624 33.099 5.15937 34.8927 6.86562C36.6865 8.57187 37.5833 10.6979 37.5833 13.2437C37.5833 14.4896 37.3556 15.7083 36.9 16.9C36.4729 18.0917 35.7042 19.4052 34.5938 20.8406C33.4833 22.249 31.9885 23.8469 30.1094 25.6344C28.2302 27.4219 25.8528 29.5479 22.9771 32.0125L20.5 34.125ZM20.5 29.7375C23.2333 27.4083 25.4826 25.4177 27.2479 23.7656C29.0132 22.0865 30.4083 20.6375 31.4333 19.4187C32.4583 18.1729 33.1701 17.076 33.5688 16.1281C33.9674 15.1531 34.1667 14.1917 34.1667 13.2437C34.1667 11.6187 33.5972 10.2646 32.4583 9.18125C31.3194 8.09791 29.8958 7.55625 28.1875 7.55625C26.8493 7.55625 25.6108 7.92187 24.4719 8.65312C23.333 9.35729 22.55 10.2646 22.1229 11.375H18.8771C18.45 10.2646 17.667 9.35729 16.5281 8.65312C15.3892 7.92187 14.1507 7.55625 12.8125 7.55625C11.1042 7.55625 9.68056 8.09791 8.54167 9.18125C7.40278 10.2646 6.83333 11.6187 6.83333 13.2437C6.83333 14.1917 7.03264 15.1531 7.43125 16.1281C7.82986 17.076 8.54167 18.1729 9.56667 19.4187C10.5917 20.6375 11.9868 22.0865 13.7521 23.7656C15.5174 25.4177 17.7667 27.4083 20.5 29.7375Z" fill="#1D1B20"/>
</svg>
