<svg width="41" height="37" viewBox="0 0 41 37" fill="none" xmlns="http://www.w3.org/2000/svg">
<path d="M6.83333 29.2917V26.2083H10.25V15.4167C10.25 13.284 10.9618 11.3955 12.3854 9.75105C13.809 8.08091 15.6597 6.9889 17.9375 6.47501V5.39584C17.9375 4.75348 18.1795 4.2139 18.6635 3.77709C19.176 3.31459 19.7882 3.08334 20.5 3.08334C21.2118 3.08334 21.8097 3.31459 22.2938 3.77709C22.8063 4.2139 23.0625 4.75348 23.0625 5.39584V6.47501C25.3403 6.9889 27.191 8.08091 28.6146 9.75105C30.0382 11.3955 30.75 13.284 30.75 15.4167V26.2083H34.1667V29.2917H6.83333ZM20.5 33.9167C19.5604 33.9167 18.749 33.6212 18.0656 33.0302C17.4108 32.4135 17.0833 31.6813 17.0833 30.8333H23.9167C23.9167 31.6813 23.575 32.4135 22.8917 33.0302C22.2368 33.6212 21.4396 33.9167 20.5 33.9167ZM13.6667 26.2083H27.3333V15.4167C27.3333 13.7208 26.6642 12.2691 25.326 11.0615C23.9878 9.85383 22.3792 9.25001 20.5 9.25001C18.6208 9.25001 17.0122 9.85383 15.674 11.0615C14.3358 12.2691 13.6667 13.7208 13.6667 15.4167V26.2083Z" fill="#1D1B20" fill-opacity="0.94"/>
</svg>
