<svg width="37" height="30" viewBox="0 0 37 30" fill="none" xmlns="http://www.w3.org/2000/svg">
<path d="M30.2167 26.25L20.5042 18.375C19.7333 18.875 18.8469 19.2708 17.8448 19.5625C16.8427 19.8542 15.7764 20 14.6458 20C11.8451 20 9.47483 19.2135 7.5349 17.6406C5.59497 16.0677 4.625 14.1458 4.625 11.875C4.625 9.60417 5.59497 7.68229 7.5349 6.10938C9.47483 4.53646 11.8451 3.75 14.6458 3.75C17.4465 3.75 19.8168 4.53646 21.7568 6.10938C23.6967 7.68229 24.6667 9.60417 24.6667 11.875C24.6667 12.7917 24.4868 13.6562 24.1271 14.4688C23.7674 15.2812 23.2792 16 22.6625 16.625L32.375 24.5L30.2167 26.25ZM14.6458 17.5C16.5729 17.5 18.2109 16.9531 19.5599 15.8594C20.9089 14.7656 21.5833 13.4375 21.5833 11.875C21.5833 10.3125 20.9089 8.98438 19.5599 7.89062C18.2109 6.79688 16.5729 6.25 14.6458 6.25C12.7188 6.25 11.0807 6.79688 9.73177 7.89062C8.38281 8.98438 7.70833 10.3125 7.70833 11.875C7.70833 13.4375 8.38281 14.7656 9.73177 15.8594C11.0807 16.9531 12.7188 17.5 14.6458 17.5Z" fill="#1D1B20"/>
</svg>
