<svg width="29" height="36" viewBox="0 0 29 36" fill="none" xmlns="http://www.w3.org/2000/svg">
<path d="M21.75 33C20.7431 33 19.8872 32.5625 19.1823 31.6875C18.4774 30.8125 18.125 29.75 18.125 28.5C18.125 28.325 18.1351 28.1438 18.1552 27.9563C18.1753 27.7688 18.2056 27.6 18.2458 27.45L9.72708 21.3C9.38472 21.675 9.00208 21.9688 8.57917 22.1813C8.15625 22.3938 7.71319 22.5 7.25 22.5C6.24306 22.5 5.38715 22.0625 4.68229 21.1875C3.97743 20.3125 3.625 19.25 3.625 18C3.625 16.75 3.97743 15.6875 4.68229 14.8125C5.38715 13.9375 6.24306 13.5 7.25 13.5C7.71319 13.5 8.15625 13.6062 8.57917 13.8188C9.00208 14.0312 9.38472 14.325 9.72708 14.7L18.2458 8.55C18.2056 8.4 18.1753 8.23125 18.1552 8.04375C18.1351 7.85625 18.125 7.675 18.125 7.5C18.125 6.25 18.4774 5.1875 19.1823 4.3125C19.8872 3.4375 20.7431 3 21.75 3C22.7569 3 23.6128 3.4375 24.3177 4.3125C25.0226 5.1875 25.375 6.25 25.375 7.5C25.375 8.75 25.0226 9.8125 24.3177 10.6875C23.6128 11.5625 22.7569 12 21.75 12C21.2868 12 20.8438 11.8938 20.4208 11.6812C19.9979 11.4688 19.6153 11.175 19.2729 10.8L10.7542 16.95C10.7944 17.1 10.8247 17.2687 10.8448 17.4562C10.8649 17.6437 10.875 17.825 10.875 18C10.875 18.175 10.8649 18.3563 10.8448 18.5438C10.8247 18.7313 10.7944 18.9 10.7542 19.05L19.2729 25.2C19.6153 24.825 19.9979 24.5312 20.4208 24.3188C20.8438 24.1063 21.2868 24 21.75 24C22.7569 24 23.6128 24.4375 24.3177 25.3125C25.0226 26.1875 25.375 27.25 25.375 28.5C25.375 29.75 25.0226 30.8125 24.3177 31.6875C23.6128 32.5625 22.7569 33 21.75 33ZM21.75 9C22.0924 9 22.3793 8.85625 22.6109 8.56875C22.8425 8.28125 22.9583 7.925 22.9583 7.5C22.9583 7.075 22.8425 6.71875 22.6109 6.43125C22.3793 6.14375 22.0924 6 21.75 6C21.4076 6 21.1207 6.14375 20.8891 6.43125C20.6575 6.71875 20.5417 7.075 20.5417 7.5C20.5417 7.925 20.6575 8.28125 20.8891 8.56875C21.1207 8.85625 21.4076 9 21.75 9ZM7.25 19.5C7.59236 19.5 7.87934 19.3563 8.11094 19.0688C8.34254 18.7813 8.45833 18.425 8.45833 18C8.45833 17.575 8.34254 17.2188 8.11094 16.9313C7.87934 16.6438 7.59236 16.5 7.25 16.5C6.90764 16.5 6.62066 16.6438 6.38906 16.9313C6.15747 17.2188 6.04167 17.575 6.04167 18C6.04167 18.425 6.15747 18.7813 6.38906 19.0688C6.62066 19.3563 6.90764 19.5 7.25 19.5ZM21.75 30C22.0924 30 22.3793 29.8562 22.6109 29.5687C22.8425 29.2812 22.9583 28.925 22.9583 28.5C22.9583 28.075 22.8425 27.7188 22.6109 27.4313C22.3793 27.1438 22.0924 27 21.75 27C21.4076 27 21.1207 27.1438 20.8891 27.4313C20.6575 27.7188 20.5417 28.075 20.5417 28.5C20.5417 28.925 20.6575 29.2812 20.8891 29.5687C21.1207 29.8562 21.4076 30 21.75 30Z" fill="#1D1B20"/>
</svg>
